<?xml version="1.0" standalone="no"?><!DOCTYPE svg PUBLIC "-//W3C//DTD SVG 1.1//EN" "http://www.w3.org/Graphics/SVG/1.1/DTD/svg11.dtd"><svg t="1641998209414" class="icon" viewBox="0 0 1024 1024" version="1.1" xmlns="http://www.w3.org/2000/svg" p-id="3174" xmlns:xlink="http://www.w3.org/1999/xlink" width="200" height="200"><defs><style type="text/css"></style></defs><path d="M640 981.333333l-76.8-256h-106.666667L384 981.333333H298.666667l76.8-256H213.333333c-46.933333 0-85.333333-38.4-85.333333-85.333333V256c-25.6 0-42.666667-17.066667-42.666667-42.666667s17.066667-42.666667 42.666667-42.666666h298.666667c0-46.933333 38.4-85.333333 85.333333-85.333334s85.333333 38.4 85.333333 85.333334h298.666667c25.6 0 42.666667 17.066667 42.666667 42.666666s-17.066667 42.666667-42.666667 42.666667v384c0 46.933333-38.4 85.333333-85.333333 85.333333h-162.133334l76.8 256h-85.333333z m149.333333-341.333333c12.8 0 21.333333-8.533333 21.333334-21.333333v-341.333334c0-12.8-8.533333-21.333333-21.333334-21.333333h-554.666666c-12.8 0-21.333333 8.533333-21.333334 21.333333v341.333334c0 12.8 8.533333 21.333333 21.333334 21.333333h554.666666z" p-id="3175" data-spm-anchor-id="a313x.7781069.0.i8" class="selected" fill="#99cc99"></path></svg>